<svg width="58" height="58" viewBox="0 0 58 58" fill="none" xmlns="http://www.w3.org/2000/svg">
<path d="M0 28.5C7.00093e-07 20.4919 6.49187 14 14.5 14C18.8417 14 22.7378 15.9082 25.3952 18.9318C30.2168 24.345 34.2038 24.0602 38.4379 20.064C40.5154 18.1024 43.3173 16.9 46.4 16.9C52.8065 16.9 58 22.0935 58 28.5C58 34.9065 52.8065 40.1 46.4 40.1C43.3173 40.1 40.5154 38.8975 38.4379 36.936C34.2048 32.9407 30.2187 32.655 25.3987 38.0642C22.7412 41.0901 18.8436 43 14.5 43C6.49187 43 -7.00091e-07 36.5081 0 28.5Z" fill="#F2F5FA"/>
<path d="M0 28.5C7.00093e-07 20.4919 6.49187 14 14.5 14C18.8417 14 22.7378 15.9082 25.3952 18.9318C30.2168 24.345 34.2038 24.0602 38.4379 20.064C40.5154 18.1024 43.3173 16.9 46.4 16.9C52.8065 16.9 58 22.0935 58 28.5C58 34.9065 52.8065 40.1 46.4 40.1C43.3173 40.1 40.5154 38.8975 38.4379 36.936C34.2048 32.9407 30.2187 32.655 25.3987 38.0642C22.7412 41.0901 18.8436 43 14.5 43C6.49187 43 -7.00091e-07 36.5081 0 28.5Z" fill="url(#paint0_linear_115_45)"/>
<path d="M0 28.5C7.00093e-07 20.4919 6.49187 14 14.5 14C18.8417 14 22.7378 15.9082 25.3952 18.9318C30.2168 24.345 34.2038 24.0602 38.4379 20.064C40.5154 18.1024 43.3173 16.9 46.4 16.9C52.8065 16.9 58 22.0935 58 28.5C58 34.9065 52.8065 40.1 46.4 40.1C43.3173 40.1 40.5154 38.8975 38.4379 36.936C34.2048 32.9407 30.2187 32.655 25.3987 38.0642C22.7412 41.0901 18.8436 43 14.5 43C6.49187 43 -7.00091e-07 36.5081 0 28.5Z" fill="url(#paint1_linear_115_45)"/>
<path d="M0 28.5C7.00093e-07 20.4919 6.49187 14 14.5 14C18.8417 14 22.7378 15.9082 25.3952 18.9318C30.2168 24.345 34.2038 24.0602 38.4379 20.064C40.5154 18.1024 43.3173 16.9 46.4 16.9C52.8065 16.9 58 22.0935 58 28.5C58 34.9065 52.8065 40.1 46.4 40.1C43.3173 40.1 40.5154 38.8975 38.4379 36.936C34.2048 32.9407 30.2187 32.655 25.3987 38.0642C22.7412 41.0901 18.8436 43 14.5 43C6.49187 43 -7.00091e-07 36.5081 0 28.5Z" fill="url(#paint2_radial_115_45)"/>
<path d="M0 28.5C7.00093e-07 20.4919 6.49187 14 14.5 14C18.8417 14 22.7378 15.9082 25.3952 18.9318C30.2168 24.345 34.2038 24.0602 38.4379 20.064C40.5154 18.1024 43.3173 16.9 46.4 16.9C52.8065 16.9 58 22.0935 58 28.5C58 34.9065 52.8065 40.1 46.4 40.1C43.3173 40.1 40.5154 38.8975 38.4379 36.936C34.2048 32.9407 30.2187 32.655 25.3987 38.0642C22.7412 41.0901 18.8436 43 14.5 43C6.49187 43 -7.00091e-07 36.5081 0 28.5Z" fill="url(#paint3_radial_115_45)"/>
<path d="M0 28.5C7.00093e-07 20.4919 6.49187 14 14.5 14C18.8417 14 22.7378 15.9082 25.3952 18.9318C30.2168 24.345 34.2038 24.0602 38.4379 20.064C40.5154 18.1024 43.3173 16.9 46.4 16.9C52.8065 16.9 58 22.0935 58 28.5C58 34.9065 52.8065 40.1 46.4 40.1C43.3173 40.1 40.5154 38.8975 38.4379 36.936C34.2048 32.9407 30.2187 32.655 25.3987 38.0642C22.7412 41.0901 18.8436 43 14.5 43C6.49187 43 -7.00091e-07 36.5081 0 28.5Z" fill="url(#paint4_radial_115_45)"/>
<defs>
<linearGradient id="paint0_linear_115_45" x1="43.6961" y1="35.7069" x2="10.3036" y2="9.75672" gradientUnits="userSpaceOnUse">
<stop stop-color="#FF557E"/>
<stop offset="0.841052" stop-color="#FF5555" stop-opacity="0"/>
</linearGradient>
<linearGradient id="paint1_linear_115_45" x1="14.5023" y1="41.0553" x2="23.4238" y2="10.15" gradientUnits="userSpaceOnUse">
<stop stop-color="#4C3BF7"/>
<stop offset="1" stop-color="#58CCDC" stop-opacity="0"/>
</linearGradient>
<radialGradient id="paint2_radial_115_45" cx="0" cy="0" r="1" gradientUnits="userSpaceOnUse" gradientTransform="translate(45.4879 49.041) rotate(-122.928) scale(37.051 30.3393)">
<stop stop-color="#8263DB"/>
<stop offset="0.568731" stop-color="#8172DA" stop-opacity="0.26"/>
<stop offset="1" stop-color="#8172DA" stop-opacity="0"/>
</radialGradient>
<radialGradient id="paint3_radial_115_45" cx="0" cy="0" r="1" gradientUnits="userSpaceOnUse" gradientTransform="translate(18.3021 9.80497) rotate(77.6745) scale(24.9567 39.2264)">
<stop stop-color="#4C3BF7"/>
<stop offset="0.492704" stop-color="#4C3BF7"/>
<stop offset="1" stop-color="#4C3BF7"/>
</radialGradient>
<radialGradient id="paint4_radial_115_45" cx="0" cy="0" r="1" gradientUnits="userSpaceOnUse" gradientTransform="translate(59.6446 3.2554) rotate(125.113) scale(27.1121 57.4261)">
<stop stop-color="#FFEC45"/>
<stop offset="0.549191" stop-color="#FFEC45" stop-opacity="0.3"/>
<stop offset="0.961144" stop-color="#FFEC45" stop-opacity="0"/>
</radialGradient>
</defs>
</svg>
