<svg width="48" height="48" viewBox="0 0 48 48" fill="none" xmlns="http://www.w3.org/2000/svg">
<g clip-path="url(#clip0_4513_4)">
<path d="M47.044 12.3709C46.7726 11.3497 46.2378 10.4178 45.493 9.66822C44.7483 8.91869 43.8197 8.37791 42.8003 8.1C39.0476 7.09091 24.0476 7.09091 24.0476 7.09091C24.0476 7.09091 9.04761 7.09091 5.29488 8.1C4.27547 8.37791 3.34693 8.91869 2.60218 9.66822C1.85744 10.4178 1.32262 11.3497 1.05124 12.3709C0.0476075 16.14 0.0476074 24 0.0476074 24C0.0476074 24 0.0476075 31.86 1.05124 35.6291C1.32262 36.6503 1.85744 37.5822 2.60218 38.3318C3.34693 39.0813 4.27547 39.6221 5.29488 39.9C9.04761 40.9091 24.0476 40.9091 24.0476 40.9091C24.0476 40.9091 39.0476 40.9091 42.8003 39.9C43.8197 39.6221 44.7483 39.0813 45.493 38.3318C46.2378 37.5822 46.7726 36.6503 47.044 35.6291C48.0476 31.86 48.0476 24 48.0476 24C48.0476 24 48.0476 16.14 47.044 12.3709Z" fill="#FF0302"/>
<path d="M30.875 29.875H21.6667C21.4799 29.8754 21.2949 29.8389 21.1222 29.7675C20.9496 29.6962 20.7928 29.5914 20.6609 29.4592L17.8318 26.6266C17.5662 26.3609 17.417 26.0006 17.417 25.625C17.417 25.2493 17.5662 24.8891 17.8318 24.6234L24.9151 17.5401C25.0467 17.4085 25.2029 17.3041 25.3748 17.2328C25.5467 17.1616 25.731 17.1249 25.917 17.1249C26.1031 17.1249 26.2874 17.1616 26.4593 17.2328C26.6312 17.3041 26.7874 17.4085 26.919 17.5401L31.1683 21.7901C31.4339 22.0557 31.5831 22.416 31.5831 22.7917C31.5831 23.1673 31.4339 23.5276 31.1683 23.7932L25.0908 29.875M19.5998 22.8554L25.8529 29.1086" stroke="white" stroke-width="2" stroke-linecap="round" stroke-linejoin="round"/>
</g>
<defs>
<clipPath id="clip0_4513_4">
<rect width="48" height="48" fill="white"/>
</clipPath>
</defs>
</svg>
